<mxfile host="app.diagrams.net" modified="2024-04-20T12:54:51.670Z" agent="Mozilla/5.0 (Windows NT 10.0; Win64; x64) AppleWebKit/537.36 (KHTML, like Gecko) Chrome/123.0.0.0 Safari/537.36" etag="DYqH7vx9BsFv7Ae4Zv-M" version="24.2.7" type="google">
  <diagram name="Trang-1" id="xxj05rc8MCnEarDpaFAj">
    <mxGraphModel dx="1947" dy="1637" grid="1" gridSize="10" guides="1" tooltips="1" connect="1" arrows="1" fold="1" page="1" pageScale="1" pageWidth="827" pageHeight="1169" math="0" shadow="0">
      <root>
        <mxCell id="0" />
        <mxCell id="1" parent="0" />
        <mxCell id="QGDqZE_F3scV5IS1ytlz-1" value="Face Detect and Recognize" style="swimlane;whiteSpace=wrap;html=1;" vertex="1" parent="1">
          <mxGeometry x="-480" y="-710" width="460" height="480" as="geometry" />
        </mxCell>
        <mxCell id="QGDqZE_F3scV5IS1ytlz-2" value="FaceDetect" style="ellipse;whiteSpace=wrap;html=1;" vertex="1" parent="QGDqZE_F3scV5IS1ytlz-1">
          <mxGeometry x="30" y="76" width="140" height="70" as="geometry" />
        </mxCell>
        <mxCell id="QGDqZE_F3scV5IS1ytlz-4" value="Face Recognize" style="ellipse;whiteSpace=wrap;html=1;" vertex="1" parent="QGDqZE_F3scV5IS1ytlz-1">
          <mxGeometry x="30" y="205" width="140" height="70" as="geometry" />
        </mxCell>
        <mxCell id="QGDqZE_F3scV5IS1ytlz-5" value="Face Register" style="ellipse;whiteSpace=wrap;html=1;" vertex="1" parent="QGDqZE_F3scV5IS1ytlz-1">
          <mxGeometry x="30" y="340" width="140" height="70" as="geometry" />
        </mxCell>
        <mxCell id="QGDqZE_F3scV5IS1ytlz-24" value="&amp;lt;&amp;lt;extend&amp;gt;&amp;gt;" style="endArrow=open;endSize=12;dashed=1;html=1;rounded=0;exitX=0.5;exitY=0;exitDx=0;exitDy=0;entryX=0.5;entryY=1;entryDx=0;entryDy=0;" edge="1" parent="QGDqZE_F3scV5IS1ytlz-1" source="QGDqZE_F3scV5IS1ytlz-4" target="QGDqZE_F3scV5IS1ytlz-2">
          <mxGeometry width="160" relative="1" as="geometry">
            <mxPoint x="120" y="145" as="sourcePoint" />
            <mxPoint x="160" y="160" as="targetPoint" />
          </mxGeometry>
        </mxCell>
        <mxCell id="QGDqZE_F3scV5IS1ytlz-26" value="&lt;b&gt;Condition&lt;/b&gt;: Face Registered&lt;div&gt;&lt;b&gt;extension point&lt;/b&gt;: FaceDetect&lt;/div&gt;" style="shape=note;size=20;whiteSpace=wrap;html=1;" vertex="1" parent="QGDqZE_F3scV5IS1ytlz-1">
          <mxGeometry x="230" y="217.5" width="210" height="45" as="geometry" />
        </mxCell>
        <mxCell id="QGDqZE_F3scV5IS1ytlz-27" value="" style="endArrow=none;dashed=1;html=1;dashPattern=1 3;strokeWidth=2;rounded=0;entryX=0;entryY=0.5;entryDx=0;entryDy=0;entryPerimeter=0;" edge="1" parent="QGDqZE_F3scV5IS1ytlz-1" target="QGDqZE_F3scV5IS1ytlz-26">
          <mxGeometry width="50" height="50" relative="1" as="geometry">
            <mxPoint x="170" y="240" as="sourcePoint" />
            <mxPoint x="220" y="190" as="targetPoint" />
          </mxGeometry>
        </mxCell>
        <mxCell id="QGDqZE_F3scV5IS1ytlz-6" value="Face&lt;div&gt;&lt;br&gt;&lt;/div&gt;" style="shape=umlActor;verticalLabelPosition=bottom;verticalAlign=top;html=1;" vertex="1" parent="1">
          <mxGeometry x="-800" y="-490" width="30" height="50" as="geometry" />
        </mxCell>
        <mxCell id="QGDqZE_F3scV5IS1ytlz-16" value="" style="endArrow=none;html=1;rounded=0;" edge="1" parent="1">
          <mxGeometry width="50" height="50" relative="1" as="geometry">
            <mxPoint x="-770" y="-461" as="sourcePoint" />
            <mxPoint x="-680" y="-580" as="targetPoint" />
          </mxGeometry>
        </mxCell>
        <mxCell id="QGDqZE_F3scV5IS1ytlz-17" value="Registed&lt;div&gt;Face&lt;/div&gt;" style="shape=umlActor;verticalLabelPosition=bottom;verticalAlign=top;html=1;" vertex="1" parent="1">
          <mxGeometry x="-670" y="-620" width="30" height="50" as="geometry" />
        </mxCell>
        <mxCell id="QGDqZE_F3scV5IS1ytlz-18" value="" style="endArrow=none;html=1;rounded=0;" edge="1" parent="1">
          <mxGeometry width="50" height="50" relative="1" as="geometry">
            <mxPoint x="-770" y="-460" as="sourcePoint" />
            <mxPoint x="-680" y="-340" as="targetPoint" />
          </mxGeometry>
        </mxCell>
        <mxCell id="QGDqZE_F3scV5IS1ytlz-19" value="New Face&lt;div&gt;&lt;br&gt;&lt;/div&gt;" style="shape=umlActor;verticalLabelPosition=bottom;verticalAlign=top;html=1;" vertex="1" parent="1">
          <mxGeometry x="-670" y="-360" width="30" height="50" as="geometry" />
        </mxCell>
        <mxCell id="QGDqZE_F3scV5IS1ytlz-20" value="" style="endArrow=none;html=1;rounded=0;entryX=0;entryY=0.5;entryDx=0;entryDy=0;" edge="1" parent="1" target="QGDqZE_F3scV5IS1ytlz-2">
          <mxGeometry width="50" height="50" relative="1" as="geometry">
            <mxPoint x="-640" y="-590" as="sourcePoint" />
            <mxPoint x="-550" y="-470" as="targetPoint" />
          </mxGeometry>
        </mxCell>
        <mxCell id="QGDqZE_F3scV5IS1ytlz-21" value="" style="endArrow=none;html=1;rounded=0;entryX=0.05;entryY=0.771;entryDx=0;entryDy=0;entryPerimeter=0;" edge="1" parent="1" source="QGDqZE_F3scV5IS1ytlz-19" target="QGDqZE_F3scV5IS1ytlz-2">
          <mxGeometry width="50" height="50" relative="1" as="geometry">
            <mxPoint x="-630" y="-330" as="sourcePoint" />
            <mxPoint x="-453.98" y="-410" as="targetPoint" />
            <Array as="points" />
          </mxGeometry>
        </mxCell>
        <mxCell id="QGDqZE_F3scV5IS1ytlz-22" value="" style="endArrow=none;html=1;rounded=0;entryX=0.036;entryY=0.286;entryDx=0;entryDy=0;entryPerimeter=0;" edge="1" parent="1" source="QGDqZE_F3scV5IS1ytlz-17" target="QGDqZE_F3scV5IS1ytlz-4">
          <mxGeometry width="50" height="50" relative="1" as="geometry">
            <mxPoint x="-630" y="-570" as="sourcePoint" />
            <mxPoint x="-439.02" y="-518.02" as="targetPoint" />
          </mxGeometry>
        </mxCell>
        <mxCell id="QGDqZE_F3scV5IS1ytlz-23" value="" style="endArrow=none;html=1;rounded=0;entryX=0;entryY=0.5;entryDx=0;entryDy=0;" edge="1" parent="1" target="QGDqZE_F3scV5IS1ytlz-5">
          <mxGeometry width="50" height="50" relative="1" as="geometry">
            <mxPoint x="-640" y="-336" as="sourcePoint" />
            <mxPoint x="-450" y="-380" as="targetPoint" />
          </mxGeometry>
        </mxCell>
        <mxCell id="QGDqZE_F3scV5IS1ytlz-25" value="&amp;lt;&amp;lt;include&amp;gt;&amp;gt;" style="endArrow=open;endSize=12;dashed=1;html=1;rounded=0;entryX=0.5;entryY=0;entryDx=0;entryDy=0;" edge="1" parent="1" target="QGDqZE_F3scV5IS1ytlz-5">
          <mxGeometry width="160" relative="1" as="geometry">
            <mxPoint x="-380" y="-450" as="sourcePoint" />
            <mxPoint x="-370" y="-574" as="targetPoint" />
          </mxGeometry>
        </mxCell>
      </root>
    </mxGraphModel>
  </diagram>
</mxfile>
